<mxfile host="Electron" agent="Mozilla/5.0 (Windows NT 10.0; Win64; x64) AppleWebKit/537.36 (KHTML, like Gecko) draw.io/24.7.17 Chrome/128.0.6613.36 Electron/32.0.1 Safari/537.36" version="24.7.17">
  <diagram name="PÃ¡gina-1" id="1a3-MRSxL4d4RG4yziFk">
    <mxGraphModel dx="1434" dy="836" grid="1" gridSize="10" guides="1" tooltips="1" connect="1" arrows="1" fold="1" page="1" pageScale="1" pageWidth="827" pageHeight="1169" math="0" shadow="0">
      <root>
        <mxCell id="0" />
        <mxCell id="1" parent="0" />
        <mxCell id="6bnzBKC3LtB2mQRdQGAW-10" value="" style="edgeStyle=orthogonalEdgeStyle;rounded=0;orthogonalLoop=1;jettySize=auto;html=1;endArrow=none;endFill=0;" parent="1" source="6bnzBKC3LtB2mQRdQGAW-1" target="6bnzBKC3LtB2mQRdQGAW-7" edge="1">
          <mxGeometry relative="1" as="geometry" />
        </mxCell>
        <mxCell id="6bnzBKC3LtB2mQRdQGAW-1" value="Tienda" style="rounded=0;whiteSpace=wrap;html=1;fillColor=#1ba1e2;fontColor=#ffffff;strokeColor=#006EAF;" parent="1" vertex="1">
          <mxGeometry x="80" y="390" width="120" height="60" as="geometry" />
        </mxCell>
        <mxCell id="6bnzBKC3LtB2mQRdQGAW-16" value="" style="edgeStyle=orthogonalEdgeStyle;rounded=0;orthogonalLoop=1;jettySize=auto;html=1;endArrow=none;endFill=0;" parent="1" source="6bnzBKC3LtB2mQRdQGAW-2" target="6bnzBKC3LtB2mQRdQGAW-6" edge="1">
          <mxGeometry relative="1" as="geometry" />
        </mxCell>
        <mxCell id="6bnzBKC3LtB2mQRdQGAW-2" value="Cliente" style="rounded=0;whiteSpace=wrap;html=1;fillColor=#1ba1e2;fontColor=#ffffff;strokeColor=#006EAF;" parent="1" vertex="1">
          <mxGeometry x="400" y="149" width="120" height="60" as="geometry" />
        </mxCell>
        <mxCell id="6bnzBKC3LtB2mQRdQGAW-12" value="" style="edgeStyle=orthogonalEdgeStyle;rounded=0;orthogonalLoop=1;jettySize=auto;html=1;endArrow=none;endFill=0;" parent="1" source="6bnzBKC3LtB2mQRdQGAW-3" target="6bnzBKC3LtB2mQRdQGAW-9" edge="1">
          <mxGeometry relative="1" as="geometry" />
        </mxCell>
        <mxCell id="6bnzBKC3LtB2mQRdQGAW-14" value="" style="edgeStyle=orthogonalEdgeStyle;rounded=0;orthogonalLoop=1;jettySize=auto;html=1;endArrow=none;endFill=0;" parent="1" source="6bnzBKC3LtB2mQRdQGAW-3" target="6bnzBKC3LtB2mQRdQGAW-8" edge="1">
          <mxGeometry relative="1" as="geometry" />
        </mxCell>
        <mxCell id="6bnzBKC3LtB2mQRdQGAW-3" value="Productos" style="rounded=0;whiteSpace=wrap;html=1;fillColor=#1ba1e2;fontColor=#ffffff;strokeColor=#006EAF;" parent="1" vertex="1">
          <mxGeometry x="400" y="390" width="120" height="60" as="geometry" />
        </mxCell>
        <mxCell id="6bnzBKC3LtB2mQRdQGAW-4" value="Proveedor" style="rounded=0;whiteSpace=wrap;html=1;fillColor=#1ba1e2;fontColor=#ffffff;strokeColor=#006EAF;" parent="1" vertex="1">
          <mxGeometry x="400" y="628" width="120" height="60" as="geometry" />
        </mxCell>
        <mxCell id="6bnzBKC3LtB2mQRdQGAW-18" value="" style="edgeStyle=orthogonalEdgeStyle;rounded=0;orthogonalLoop=1;jettySize=auto;html=1;endArrow=none;endFill=0;" parent="1" source="6bnzBKC3LtB2mQRdQGAW-6" target="6bnzBKC3LtB2mQRdQGAW-17" edge="1">
          <mxGeometry relative="1" as="geometry" />
        </mxCell>
        <mxCell id="6bnzBKC3LtB2mQRdQGAW-6" value="Registra" style="rhombus;whiteSpace=wrap;html=1;fillColor=#008a00;fontColor=#ffffff;strokeColor=#005700;" parent="1" vertex="1">
          <mxGeometry x="250" y="159" width="100" height="40" as="geometry" />
        </mxCell>
        <mxCell id="6bnzBKC3LtB2mQRdQGAW-11" value="" style="edgeStyle=orthogonalEdgeStyle;rounded=0;orthogonalLoop=1;jettySize=auto;html=1;endArrow=none;endFill=0;" parent="1" source="6bnzBKC3LtB2mQRdQGAW-7" target="6bnzBKC3LtB2mQRdQGAW-3" edge="1">
          <mxGeometry relative="1" as="geometry" />
        </mxCell>
        <mxCell id="6bnzBKC3LtB2mQRdQGAW-7" value="Tiene" style="rhombus;whiteSpace=wrap;html=1;fillColor=#008a00;fontColor=#ffffff;strokeColor=#005700;" parent="1" vertex="1">
          <mxGeometry x="260" y="400" width="100" height="40" as="geometry" />
        </mxCell>
        <mxCell id="6bnzBKC3LtB2mQRdQGAW-15" value="" style="edgeStyle=orthogonalEdgeStyle;rounded=0;orthogonalLoop=1;jettySize=auto;html=1;endArrow=none;endFill=0;" parent="1" source="6bnzBKC3LtB2mQRdQGAW-8" target="6bnzBKC3LtB2mQRdQGAW-2" edge="1">
          <mxGeometry relative="1" as="geometry" />
        </mxCell>
        <mxCell id="6bnzBKC3LtB2mQRdQGAW-8" value="Compra" style="rhombus;whiteSpace=wrap;html=1;fillColor=#008a00;fontColor=#ffffff;strokeColor=#005700;" parent="1" vertex="1">
          <mxGeometry x="410" y="270" width="100" height="40" as="geometry" />
        </mxCell>
        <mxCell id="6bnzBKC3LtB2mQRdQGAW-13" value="" style="edgeStyle=orthogonalEdgeStyle;rounded=0;orthogonalLoop=1;jettySize=auto;html=1;endArrow=none;endFill=0;" parent="1" source="6bnzBKC3LtB2mQRdQGAW-9" target="6bnzBKC3LtB2mQRdQGAW-4" edge="1">
          <mxGeometry relative="1" as="geometry" />
        </mxCell>
        <mxCell id="6bnzBKC3LtB2mQRdQGAW-9" value="Provee" style="rhombus;whiteSpace=wrap;html=1;fillColor=#008a00;fontColor=#ffffff;strokeColor=#005700;" parent="1" vertex="1">
          <mxGeometry x="410" y="520" width="100" height="40" as="geometry" />
        </mxCell>
        <mxCell id="6bnzBKC3LtB2mQRdQGAW-17" value="&lt;u&gt;Fecha&lt;/u&gt;" style="ellipse;whiteSpace=wrap;html=1;fillColor=#647687;fontColor=#ffffff;strokeColor=#314354;" parent="1" vertex="1">
          <mxGeometry x="110" y="154" width="100" height="50" as="geometry" />
        </mxCell>
        <mxCell id="6bnzBKC3LtB2mQRdQGAW-19" value="&lt;u&gt;ID&lt;/u&gt;" style="ellipse;whiteSpace=wrap;html=1;fillColor=#647687;fontColor=#ffffff;strokeColor=#314354;" parent="1" vertex="1">
          <mxGeometry x="640" y="280" width="100" height="50" as="geometry" />
        </mxCell>
        <mxCell id="6bnzBKC3LtB2mQRdQGAW-20" value="Cantidad en Stock" style="ellipse;whiteSpace=wrap;html=1;fillColor=#647687;fontColor=#ffffff;strokeColor=#314354;" parent="1" vertex="1">
          <mxGeometry x="640" y="520" width="100" height="50" as="geometry" />
        </mxCell>
        <mxCell id="6bnzBKC3LtB2mQRdQGAW-21" value="Precio" style="ellipse;whiteSpace=wrap;html=1;fillColor=#647687;fontColor=#ffffff;strokeColor=#314354;" parent="1" vertex="1">
          <mxGeometry x="640" y="440" width="100" height="50" as="geometry" />
        </mxCell>
        <mxCell id="6bnzBKC3LtB2mQRdQGAW-22" value="Descripcion" style="ellipse;whiteSpace=wrap;html=1;fillColor=#647687;fontColor=#ffffff;strokeColor=#314354;" parent="1" vertex="1">
          <mxGeometry x="640" y="360" width="100" height="50" as="geometry" />
        </mxCell>
        <mxCell id="6bnzBKC3LtB2mQRdQGAW-24" value="" style="endArrow=none;html=1;rounded=0;entryX=0;entryY=0.5;entryDx=0;entryDy=0;exitX=1.008;exitY=0.633;exitDx=0;exitDy=0;exitPerimeter=0;" parent="1" source="6bnzBKC3LtB2mQRdQGAW-3" target="6bnzBKC3LtB2mQRdQGAW-21" edge="1">
          <mxGeometry width="50" height="50" relative="1" as="geometry">
            <mxPoint x="550" y="570" as="sourcePoint" />
            <mxPoint x="600" y="520" as="targetPoint" />
          </mxGeometry>
        </mxCell>
        <mxCell id="6bnzBKC3LtB2mQRdQGAW-25" value="" style="endArrow=none;html=1;rounded=0;entryX=0;entryY=0.5;entryDx=0;entryDy=0;exitX=1;exitY=0.25;exitDx=0;exitDy=0;" parent="1" source="6bnzBKC3LtB2mQRdQGAW-3" target="6bnzBKC3LtB2mQRdQGAW-22" edge="1">
          <mxGeometry width="50" height="50" relative="1" as="geometry">
            <mxPoint x="550" y="570" as="sourcePoint" />
            <mxPoint x="600" y="520" as="targetPoint" />
          </mxGeometry>
        </mxCell>
        <mxCell id="6bnzBKC3LtB2mQRdQGAW-26" value="" style="endArrow=none;html=1;rounded=0;entryX=0;entryY=0.5;entryDx=0;entryDy=0;exitX=1;exitY=0;exitDx=0;exitDy=0;" parent="1" source="6bnzBKC3LtB2mQRdQGAW-3" target="6bnzBKC3LtB2mQRdQGAW-19" edge="1">
          <mxGeometry width="50" height="50" relative="1" as="geometry">
            <mxPoint x="550" y="570" as="sourcePoint" />
            <mxPoint x="600" y="520" as="targetPoint" />
          </mxGeometry>
        </mxCell>
        <mxCell id="6bnzBKC3LtB2mQRdQGAW-28" value="" style="endArrow=none;html=1;rounded=0;entryX=0;entryY=0.5;entryDx=0;entryDy=0;exitX=1;exitY=1;exitDx=0;exitDy=0;" parent="1" source="6bnzBKC3LtB2mQRdQGAW-3" target="6bnzBKC3LtB2mQRdQGAW-20" edge="1">
          <mxGeometry width="50" height="50" relative="1" as="geometry">
            <mxPoint x="550" y="570" as="sourcePoint" />
            <mxPoint x="600" y="520" as="targetPoint" />
          </mxGeometry>
        </mxCell>
        <mxCell id="6bnzBKC3LtB2mQRdQGAW-29" value="&lt;u&gt;ID&lt;/u&gt;" style="ellipse;whiteSpace=wrap;html=1;fillColor=#647687;fontColor=#ffffff;strokeColor=#314354;" parent="1" vertex="1">
          <mxGeometry x="314" width="100" height="50" as="geometry" />
        </mxCell>
        <mxCell id="6bnzBKC3LtB2mQRdQGAW-30" value="Nombre" style="ellipse;whiteSpace=wrap;html=1;fillColor=#647687;fontColor=#ffffff;strokeColor=#314354;" parent="1" vertex="1">
          <mxGeometry x="440" width="100" height="50" as="geometry" />
        </mxCell>
        <mxCell id="6bnzBKC3LtB2mQRdQGAW-31" value="Numero" style="ellipse;whiteSpace=wrap;html=1;fillColor=#647687;fontColor=#ffffff;strokeColor=#314354;" parent="1" vertex="1">
          <mxGeometry x="560" y="159" width="100" height="50" as="geometry" />
        </mxCell>
        <mxCell id="6bnzBKC3LtB2mQRdQGAW-32" value="Direccion" style="ellipse;whiteSpace=wrap;html=1;fillColor=#647687;fontColor=#ffffff;strokeColor=#314354;" parent="1" vertex="1">
          <mxGeometry x="560" y="80" width="100" height="50" as="geometry" />
        </mxCell>
        <mxCell id="6bnzBKC3LtB2mQRdQGAW-33" value="Apellidos" style="ellipse;whiteSpace=wrap;html=1;fillColor=#647687;fontColor=#ffffff;strokeColor=#314354;" parent="1" vertex="1">
          <mxGeometry x="560" width="100" height="50" as="geometry" />
        </mxCell>
        <mxCell id="6bnzBKC3LtB2mQRdQGAW-34" value="" style="endArrow=none;html=1;rounded=0;entryX=0;entryY=0.5;entryDx=0;entryDy=0;exitX=1;exitY=0.5;exitDx=0;exitDy=0;" parent="1" source="6bnzBKC3LtB2mQRdQGAW-2" target="6bnzBKC3LtB2mQRdQGAW-31" edge="1">
          <mxGeometry width="50" height="50" relative="1" as="geometry">
            <mxPoint x="550" y="370" as="sourcePoint" />
            <mxPoint x="600" y="320" as="targetPoint" />
          </mxGeometry>
        </mxCell>
        <mxCell id="6bnzBKC3LtB2mQRdQGAW-35" value="" style="endArrow=none;html=1;rounded=0;entryX=0;entryY=0.5;entryDx=0;entryDy=0;exitX=1;exitY=0;exitDx=0;exitDy=0;" parent="1" source="6bnzBKC3LtB2mQRdQGAW-2" target="6bnzBKC3LtB2mQRdQGAW-32" edge="1">
          <mxGeometry width="50" height="50" relative="1" as="geometry">
            <mxPoint x="550" y="370" as="sourcePoint" />
            <mxPoint x="600" y="320" as="targetPoint" />
          </mxGeometry>
        </mxCell>
        <mxCell id="6bnzBKC3LtB2mQRdQGAW-36" value="" style="endArrow=none;html=1;rounded=0;entryX=0;entryY=1;entryDx=0;entryDy=0;exitX=0.75;exitY=0;exitDx=0;exitDy=0;" parent="1" source="6bnzBKC3LtB2mQRdQGAW-2" target="6bnzBKC3LtB2mQRdQGAW-33" edge="1">
          <mxGeometry width="50" height="50" relative="1" as="geometry">
            <mxPoint x="550" y="370" as="sourcePoint" />
            <mxPoint x="600" y="320" as="targetPoint" />
          </mxGeometry>
        </mxCell>
        <mxCell id="6bnzBKC3LtB2mQRdQGAW-37" value="" style="endArrow=none;html=1;rounded=0;entryX=0.5;entryY=1;entryDx=0;entryDy=0;exitX=0.5;exitY=0;exitDx=0;exitDy=0;" parent="1" source="6bnzBKC3LtB2mQRdQGAW-2" target="6bnzBKC3LtB2mQRdQGAW-30" edge="1">
          <mxGeometry width="50" height="50" relative="1" as="geometry">
            <mxPoint x="550" y="370" as="sourcePoint" />
            <mxPoint x="600" y="320" as="targetPoint" />
          </mxGeometry>
        </mxCell>
        <mxCell id="6bnzBKC3LtB2mQRdQGAW-38" value="" style="endArrow=none;html=1;rounded=0;entryX=0.5;entryY=1;entryDx=0;entryDy=0;exitX=0;exitY=0;exitDx=0;exitDy=0;" parent="1" source="6bnzBKC3LtB2mQRdQGAW-2" target="6bnzBKC3LtB2mQRdQGAW-29" edge="1">
          <mxGeometry width="50" height="50" relative="1" as="geometry">
            <mxPoint x="550" y="370" as="sourcePoint" />
            <mxPoint x="600" y="320" as="targetPoint" />
          </mxGeometry>
        </mxCell>
        <mxCell id="6bnzBKC3LtB2mQRdQGAW-39" value="&lt;u&gt;Codigo&lt;/u&gt;" style="ellipse;whiteSpace=wrap;html=1;fillColor=#647687;fontColor=#ffffff;strokeColor=#314354;" parent="1" vertex="1">
          <mxGeometry x="220" y="590" width="100" height="50" as="geometry" />
        </mxCell>
        <mxCell id="6bnzBKC3LtB2mQRdQGAW-40" value="Nombre" style="ellipse;whiteSpace=wrap;html=1;fillColor=#647687;fontColor=#ffffff;strokeColor=#314354;" parent="1" vertex="1">
          <mxGeometry x="220" y="670" width="100" height="50" as="geometry" />
        </mxCell>
        <mxCell id="6bnzBKC3LtB2mQRdQGAW-41" value="Apellidos" style="ellipse;whiteSpace=wrap;html=1;fillColor=#647687;fontColor=#ffffff;strokeColor=#314354;" parent="1" vertex="1">
          <mxGeometry x="340" y="750" width="100" height="50" as="geometry" />
        </mxCell>
        <mxCell id="6bnzBKC3LtB2mQRdQGAW-42" value="Direccion" style="ellipse;whiteSpace=wrap;html=1;fillColor=#647687;fontColor=#ffffff;strokeColor=#314354;" parent="1" vertex="1">
          <mxGeometry x="460" y="750" width="100" height="50" as="geometry" />
        </mxCell>
        <mxCell id="6bnzBKC3LtB2mQRdQGAW-43" value="Provincia" style="ellipse;whiteSpace=wrap;html=1;fillColor=#647687;fontColor=#ffffff;strokeColor=#314354;" parent="1" vertex="1">
          <mxGeometry x="600" y="720" width="100" height="50" as="geometry" />
        </mxCell>
        <mxCell id="6bnzBKC3LtB2mQRdQGAW-44" value="NÂºTelefono" style="ellipse;whiteSpace=wrap;html=1;fillColor=#647687;fontColor=#ffffff;strokeColor=#314354;" parent="1" vertex="1">
          <mxGeometry x="600" y="628" width="100" height="50" as="geometry" />
        </mxCell>
        <mxCell id="6bnzBKC3LtB2mQRdQGAW-45" value="" style="endArrow=none;html=1;rounded=0;exitX=0;exitY=0.5;exitDx=0;exitDy=0;entryX=1;entryY=0;entryDx=0;entryDy=0;" parent="1" source="6bnzBKC3LtB2mQRdQGAW-44" target="6bnzBKC3LtB2mQRdQGAW-4" edge="1">
          <mxGeometry width="50" height="50" relative="1" as="geometry">
            <mxPoint x="550" y="680" as="sourcePoint" />
            <mxPoint x="600" y="630" as="targetPoint" />
          </mxGeometry>
        </mxCell>
        <mxCell id="6bnzBKC3LtB2mQRdQGAW-46" value="" style="endArrow=none;html=1;rounded=0;exitX=0;exitY=0.5;exitDx=0;exitDy=0;entryX=1;entryY=0.5;entryDx=0;entryDy=0;" parent="1" source="6bnzBKC3LtB2mQRdQGAW-43" target="6bnzBKC3LtB2mQRdQGAW-4" edge="1">
          <mxGeometry width="50" height="50" relative="1" as="geometry">
            <mxPoint x="550" y="680" as="sourcePoint" />
            <mxPoint x="600" y="630" as="targetPoint" />
          </mxGeometry>
        </mxCell>
        <mxCell id="6bnzBKC3LtB2mQRdQGAW-47" value="" style="endArrow=none;html=1;rounded=0;exitX=0.5;exitY=0;exitDx=0;exitDy=0;entryX=0.75;entryY=1;entryDx=0;entryDy=0;" parent="1" source="6bnzBKC3LtB2mQRdQGAW-42" target="6bnzBKC3LtB2mQRdQGAW-4" edge="1">
          <mxGeometry width="50" height="50" relative="1" as="geometry">
            <mxPoint x="550" y="680" as="sourcePoint" />
            <mxPoint x="600" y="630" as="targetPoint" />
          </mxGeometry>
        </mxCell>
        <mxCell id="6bnzBKC3LtB2mQRdQGAW-48" value="" style="endArrow=none;html=1;rounded=0;exitX=0.5;exitY=0;exitDx=0;exitDy=0;entryX=0;entryY=1;entryDx=0;entryDy=0;" parent="1" source="6bnzBKC3LtB2mQRdQGAW-41" target="6bnzBKC3LtB2mQRdQGAW-4" edge="1">
          <mxGeometry width="50" height="50" relative="1" as="geometry">
            <mxPoint x="550" y="680" as="sourcePoint" />
            <mxPoint x="600" y="630" as="targetPoint" />
          </mxGeometry>
        </mxCell>
        <mxCell id="6bnzBKC3LtB2mQRdQGAW-49" value="" style="endArrow=none;html=1;rounded=0;exitX=1;exitY=0.5;exitDx=0;exitDy=0;entryX=0;entryY=0.5;entryDx=0;entryDy=0;" parent="1" source="6bnzBKC3LtB2mQRdQGAW-40" target="6bnzBKC3LtB2mQRdQGAW-4" edge="1">
          <mxGeometry width="50" height="50" relative="1" as="geometry">
            <mxPoint x="550" y="680" as="sourcePoint" />
            <mxPoint x="600" y="630" as="targetPoint" />
          </mxGeometry>
        </mxCell>
        <mxCell id="6bnzBKC3LtB2mQRdQGAW-50" value="" style="endArrow=none;html=1;rounded=0;exitX=1;exitY=0.5;exitDx=0;exitDy=0;entryX=0;entryY=0;entryDx=0;entryDy=0;" parent="1" source="6bnzBKC3LtB2mQRdQGAW-39" target="6bnzBKC3LtB2mQRdQGAW-4" edge="1">
          <mxGeometry width="50" height="50" relative="1" as="geometry">
            <mxPoint x="550" y="680" as="sourcePoint" />
            <mxPoint x="600" y="630" as="targetPoint" />
          </mxGeometry>
        </mxCell>
        <mxCell id="QWiJroCMWzaynlAE4SwC-1" value="(1,n)" style="text;html=1;align=center;verticalAlign=middle;whiteSpace=wrap;rounded=0;" vertex="1" parent="1">
          <mxGeometry x="340" y="390" width="60" height="30" as="geometry" />
        </mxCell>
        <mxCell id="QWiJroCMWzaynlAE4SwC-2" value="(n,1)" style="text;html=1;align=center;verticalAlign=middle;whiteSpace=wrap;rounded=0;" vertex="1" parent="1">
          <mxGeometry x="200" y="390" width="60" height="30" as="geometry" />
        </mxCell>
        <mxCell id="QWiJroCMWzaynlAE4SwC-3" value="(1,n)" style="text;html=1;align=center;verticalAlign=middle;whiteSpace=wrap;rounded=0;" vertex="1" parent="1">
          <mxGeometry x="280" y="370" width="60" height="30" as="geometry" />
        </mxCell>
        <mxCell id="QWiJroCMWzaynlAE4SwC-4" value="(n,n)" style="text;html=1;align=center;verticalAlign=middle;whiteSpace=wrap;rounded=0;" vertex="1" parent="1">
          <mxGeometry x="460" y="360" width="60" height="30" as="geometry" />
        </mxCell>
        <mxCell id="QWiJroCMWzaynlAE4SwC-5" value="(1,n)" style="text;html=1;align=center;verticalAlign=middle;whiteSpace=wrap;rounded=0;" vertex="1" parent="1">
          <mxGeometry x="400" y="209" width="60" height="30" as="geometry" />
        </mxCell>
        <mxCell id="QWiJroCMWzaynlAE4SwC-6" value="(n,n)" style="text;html=1;align=center;verticalAlign=middle;whiteSpace=wrap;rounded=0;" vertex="1" parent="1">
          <mxGeometry x="510" y="275" width="60" height="30" as="geometry" />
        </mxCell>
        <mxCell id="QWiJroCMWzaynlAE4SwC-7" value="(n,n)" style="text;html=1;align=center;verticalAlign=middle;whiteSpace=wrap;rounded=0;" vertex="1" parent="1">
          <mxGeometry x="460" y="450" width="60" height="30" as="geometry" />
        </mxCell>
        <mxCell id="QWiJroCMWzaynlAE4SwC-8" value="(n,n)" style="text;html=1;align=center;verticalAlign=middle;whiteSpace=wrap;rounded=0;" vertex="1" parent="1">
          <mxGeometry x="400" y="598" width="60" height="30" as="geometry" />
        </mxCell>
        <mxCell id="QWiJroCMWzaynlAE4SwC-9" value="(n,n)" style="text;html=1;align=center;verticalAlign=middle;whiteSpace=wrap;rounded=0;" vertex="1" parent="1">
          <mxGeometry x="510" y="525" width="60" height="30" as="geometry" />
        </mxCell>
      </root>
    </mxGraphModel>
  </diagram>
</mxfile>
